<mxfile host="app.diagrams.net" modified="2024-02-24T21:46:29.195Z" agent="Mozilla/5.0 (Windows NT 10.0; Win64; x64) AppleWebKit/537.36 (KHTML, like Gecko) Chrome/121.0.0.0 Safari/537.36" etag="eGTXsAcT2iHjQjd2jPpK" version="21.3.4" type="github">
  <diagram name="PÃ¡gina-1" id="Axy6b_wAgyzRyRnU6W7M">
    <mxGraphModel dx="1877" dy="1711" grid="1" gridSize="10" guides="1" tooltips="1" connect="1" arrows="1" fold="1" page="1" pageScale="1" pageWidth="827" pageHeight="1169" math="0" shadow="0">
      <root>
        <mxCell id="0" />
        <mxCell id="1" parent="0" />
        <mxCell id="W62mH0fxVIcesBMU4JI1-27" style="edgeStyle=orthogonalEdgeStyle;rounded=0;orthogonalLoop=1;jettySize=auto;html=1;entryX=-0.001;entryY=0.322;entryDx=0;entryDy=0;entryPerimeter=0;" edge="1" parent="1" source="W62mH0fxVIcesBMU4JI1-1" target="W62mH0fxVIcesBMU4JI1-16">
          <mxGeometry relative="1" as="geometry" />
        </mxCell>
        <mxCell id="W62mH0fxVIcesBMU4JI1-1" value="" style="whiteSpace=wrap;html=1;aspect=fixed;labelBackgroundColor=#fff0f0;fillColor=#fff2cc;strokeColor=#d6b656;" vertex="1" parent="1">
          <mxGeometry x="-90" y="-30" width="580" height="580" as="geometry" />
        </mxCell>
        <mxCell id="W62mH0fxVIcesBMU4JI1-3" value="com.udea.config" style="shape=folder;fontStyle=1;spacingTop=10;tabWidth=40;tabHeight=14;tabPosition=left;html=1;whiteSpace=wrap;verticalAlign=top;fillColor=#CCFFCC;strokeColor=#82b366;" vertex="1" parent="1">
          <mxGeometry x="-75" y="-3" width="260" height="110" as="geometry" />
        </mxCell>
        <mxCell id="W62mH0fxVIcesBMU4JI1-6" value="AppConfig" style="shape=module;align=left;spacingLeft=20;align=center;verticalAlign=top;whiteSpace=wrap;html=1;" vertex="1" parent="1">
          <mxGeometry x="-65" y="37" width="210" height="50" as="geometry" />
        </mxCell>
        <mxCell id="W62mH0fxVIcesBMU4JI1-7" value="com.udea.controller" style="shape=folder;fontStyle=1;spacingTop=10;tabWidth=40;tabHeight=14;tabPosition=left;html=1;whiteSpace=wrap;verticalAlign=top;fillColor=#CCFFCC;strokeColor=#82b366;" vertex="1" parent="1">
          <mxGeometry x="-75" y="120" width="260" height="110" as="geometry" />
        </mxCell>
        <mxCell id="W62mH0fxVIcesBMU4JI1-8" value="FlightController" style="shape=module;align=left;spacingLeft=20;align=center;verticalAlign=top;whiteSpace=wrap;html=1;" vertex="1" parent="1">
          <mxGeometry x="-60" y="160" width="210" height="50" as="geometry" />
        </mxCell>
        <mxCell id="W62mH0fxVIcesBMU4JI1-26" style="edgeStyle=orthogonalEdgeStyle;rounded=0;orthogonalLoop=1;jettySize=auto;html=1;" edge="1" parent="1" source="W62mH0fxVIcesBMU4JI1-9" target="W62mH0fxVIcesBMU4JI1-7">
          <mxGeometry relative="1" as="geometry" />
        </mxCell>
        <mxCell id="W62mH0fxVIcesBMU4JI1-9" value="com.udea.service" style="shape=folder;fontStyle=1;spacingTop=10;tabWidth=40;tabHeight=14;tabPosition=left;html=1;whiteSpace=wrap;verticalAlign=top;fillColor=#CCFFCC;strokeColor=#82b366;" vertex="1" parent="1">
          <mxGeometry x="-75" y="270" width="260" height="110" as="geometry" />
        </mxCell>
        <mxCell id="W62mH0fxVIcesBMU4JI1-10" value="FlightService" style="shape=module;align=left;spacingLeft=20;align=center;verticalAlign=top;whiteSpace=wrap;html=1;" vertex="1" parent="1">
          <mxGeometry x="-60" y="310" width="210" height="50" as="geometry" />
        </mxCell>
        <mxCell id="W62mH0fxVIcesBMU4JI1-25" style="edgeStyle=orthogonalEdgeStyle;rounded=0;orthogonalLoop=1;jettySize=auto;html=1;entryX=0.5;entryY=1;entryDx=0;entryDy=0;entryPerimeter=0;" edge="1" parent="1" source="W62mH0fxVIcesBMU4JI1-11" target="W62mH0fxVIcesBMU4JI1-9">
          <mxGeometry relative="1" as="geometry" />
        </mxCell>
        <mxCell id="W62mH0fxVIcesBMU4JI1-11" value="com.udea.model" style="shape=folder;fontStyle=1;spacingTop=10;tabWidth=40;tabHeight=14;tabPosition=left;html=1;whiteSpace=wrap;verticalAlign=top;fillColor=#CCFFCC;strokeColor=#82b366;" vertex="1" parent="1">
          <mxGeometry x="-75" y="420" width="260" height="110" as="geometry" />
        </mxCell>
        <mxCell id="W62mH0fxVIcesBMU4JI1-12" value="&amp;lt;&amp;lt;CRUD&amp;gt;&amp;gt;&lt;br&gt;Flight" style="shape=module;align=left;spacingLeft=20;align=center;verticalAlign=top;whiteSpace=wrap;html=1;" vertex="1" parent="1">
          <mxGeometry x="-60" y="460" width="210" height="50" as="geometry" />
        </mxCell>
        <mxCell id="W62mH0fxVIcesBMU4JI1-24" style="edgeStyle=orthogonalEdgeStyle;rounded=0;orthogonalLoop=1;jettySize=auto;html=1;" edge="1" parent="1" source="W62mH0fxVIcesBMU4JI1-13" target="W62mH0fxVIcesBMU4JI1-9">
          <mxGeometry relative="1" as="geometry" />
        </mxCell>
        <mxCell id="W62mH0fxVIcesBMU4JI1-13" value="flights.json" style="shape=note;whiteSpace=wrap;html=1;backgroundOutline=1;darkOpacity=0.05;fillColor=#dae8fc;strokeColor=#6c8ebf;" vertex="1" parent="1">
          <mxGeometry x="271" y="205" width="66" height="95" as="geometry" />
        </mxCell>
        <mxCell id="W62mH0fxVIcesBMU4JI1-14" value="application.properties" style="shape=note;whiteSpace=wrap;html=1;backgroundOutline=1;darkOpacity=0.05;" vertex="1" parent="1">
          <mxGeometry x="264" y="320" width="124" height="80" as="geometry" />
        </mxCell>
        <mxCell id="W62mH0fxVIcesBMU4JI1-15" value="POM.XML" style="shape=note;whiteSpace=wrap;html=1;backgroundOutline=1;darkOpacity=0.05;" vertex="1" parent="1">
          <mxGeometry x="264" y="420" width="74" height="90" as="geometry" />
        </mxCell>
        <mxCell id="W62mH0fxVIcesBMU4JI1-16" value="" style="whiteSpace=wrap;html=1;aspect=fixed;fillColor=#dae8fc;strokeColor=#6c8ebf;" vertex="1" parent="1">
          <mxGeometry x="570" y="160" width="290" height="290" as="geometry" />
        </mxCell>
        <mxCell id="W62mH0fxVIcesBMU4JI1-17" value="FlightSearch.js" style="shape=module;align=left;spacingLeft=20;align=center;verticalAlign=top;whiteSpace=wrap;html=1;fillColor=#f8cecc;strokeColor=#b85450;" vertex="1" parent="1">
          <mxGeometry x="580" y="270" width="140" height="50" as="geometry" />
        </mxCell>
        <mxCell id="W62mH0fxVIcesBMU4JI1-18" value="css" style="shape=folder;fontStyle=1;spacingTop=10;tabWidth=40;tabHeight=14;tabPosition=left;html=1;whiteSpace=wrap;" vertex="1" parent="1">
          <mxGeometry x="580" y="340" width="70" height="50" as="geometry" />
        </mxCell>
        <mxCell id="W62mH0fxVIcesBMU4JI1-19" value="App.js" style="shape=module;align=left;spacingLeft=20;align=center;verticalAlign=top;whiteSpace=wrap;html=1;fillColor=#fff2cc;strokeColor=#d6b656;" vertex="1" parent="1">
          <mxGeometry x="580" y="205" width="140" height="50" as="geometry" />
        </mxCell>
        <mxCell id="W62mH0fxVIcesBMU4JI1-20" value="package.json" style="shape=note;whiteSpace=wrap;html=1;backgroundOutline=1;darkOpacity=0.05;" vertex="1" parent="1">
          <mxGeometry x="670" y="330" width="80" height="100" as="geometry" />
        </mxCell>
        <mxCell id="W62mH0fxVIcesBMU4JI1-21" value="&lt;b&gt;&lt;font style=&quot;font-size: 17px;&quot;&gt;Frontend&lt;/font&gt;&lt;/b&gt;" style="text;html=1;strokeColor=none;fillColor=none;align=center;verticalAlign=middle;whiteSpace=wrap;rounded=0;" vertex="1" parent="1">
          <mxGeometry x="680" y="170" width="60" height="30" as="geometry" />
        </mxCell>
        <mxCell id="W62mH0fxVIcesBMU4JI1-22" value="&lt;b&gt;&lt;font style=&quot;font-size: 18px;&quot;&gt;Backend&lt;/font&gt;&lt;/b&gt;" style="text;html=1;strokeColor=none;fillColor=none;align=center;verticalAlign=middle;whiteSpace=wrap;rounded=0;" vertex="1" parent="1">
          <mxGeometry x="170" y="-30" width="60" height="30" as="geometry" />
        </mxCell>
        <mxCell id="W62mH0fxVIcesBMU4JI1-28" value="CORS Filter" style="text;html=1;strokeColor=none;fillColor=none;align=center;verticalAlign=middle;whiteSpace=wrap;rounded=0;" vertex="1" parent="1">
          <mxGeometry x="500" y="260" width="60" height="30" as="geometry" />
        </mxCell>
      </root>
    </mxGraphModel>
  </diagram>
</mxfile>
